PathFileType	4	(X/Y/Z)	C:/Users/opensim2020/Desktop/walking_exp_matlab/subject03_walking08_straight_02.trc																																																																																																																																																							
DataRate	CameraRate	NumFrames	NumMarkers	Units	OrigDataRate	OrigDataStartFrame	OrigNumFrames																																																																																																																																																			
100	100	6	51	mm	100	1827	314																																																																																																																																																			
Frame#	Time	LFHD			RFHD			LBHD			RBHD			C7			T10			CLAV			STRN			RBAK			LSHO			LUPA			LELB			LFRM			LWRA			LWRB			LFIN			RSHO			RUPA			RELB			RFRM			RWRA			RWRB			RFIN			LASI			RASI			LPSI			RPSI			LTHI			LKNE			LTIB			LANK			LHEE			LTOE			RTHI			RKNE			RTIB			RANK			RHEE			RTOE			*39			*40			*41			*42			*43			*44			*45			*46			*47			*48			*49			*50		
		X1	Y1	Z1	X2	Y2	Z2	X3	Y3	Z3	X4	Y4	Z4	X5	Y5	Z5	X6	Y6	Z6	X7	Y7	Z7	X8	Y8	Z8	X9	Y9	Z9	X10	Y10	Z10	X11	Y11	Z11	X12	Y12	Z12	X13	Y13	Z13	X14	Y14	Z14	X15	Y15	Z15	X16	Y16	Z16	X17	Y17	Z17	X18	Y18	Z18	X19	Y19	Z19	X20	Y20	Z20	X21	Y21	Z21	X22	Y22	Z22	X23	Y23	Z23	X24	Y24	Z24	X25	Y25	Z25	X26	Y26	Z26	X27	Y27	Z27	X28	Y28	Z28	X29	Y29	Z29	X30	Y30	Z30	X31	Y31	Z31	X32	Y32	Z32	X33	Y33	Z33	X34	Y34	Z34	X35	Y35	Z35	X36	Y36	Z36	X37	Y37	Z37	X38	Y38	Z38	X39	Y39	Z39	X40	Y40	Z40	X41	Y41	Z41	X42	Y42	Z42	X43	Y43	Z43	X44	Y44	Z44	X45	Y45	Z45	X46	Y46	Z46	X47	Y47	Z47	X48	Y48	Z48	X49	Y49	Z49	X50	Y50	Z50	X51	Y51	Z51
																																																																																																																																																										
275	2.74	1009.95374	1599.29956	-1499.89844	979.90851	1599.16333	-1370.10242	878.26874	1577.15991	-1526.11719	853.75421	1575.93994	-1398.15015	817.15057	1405.95813	-1476.59009	803.79376	1085.83154	-1477.24072	938.09601	1330.89343	-1465.14905	993.40057	1171.45313	-1472.78528	762.11157	1218.32764	-1392.14355	906.84412	1368.36792	-1623.46863	942.19037	1176.33826	-1695.45264	981.18115	1059.42603	-1704.40088	1052.16846	951.52002	-1688.64929	1106.79712	852.2439	-1642.65735	1094.4563	845.4353	-1696.53076	1141.15405	778.86798	-1674.6499	875.47583	1345.36987	-1309.06714	869.44562	1118.52356	-1249.47766	881.12335	1005.64001	-1238.5769	893.95428	868.88568	-1238.77051	928.96594	773.99603	-1270.7915	888.60339	768.18683	-1234.68103	909.44141	696.53497	-1244.41602	971.2666	929.71802	-1597.15894	978.52374	929.59363	-1356.73828	811.00037	955.62842	-1539.57373	815.91095	957.01331	-1390.61438	862.06689	638.7453	-1635.0199	819.49969	463.94043	-1604.07568	699.22021	303.21436	-1607.2251	605.7561	111.14516	-1569.72632	555.04767	92.46533	-1534.48584	736.81451	33.54155	-1533.05725	965.18341	636.13409	-1317.07898	1026.48071	466.20508	-1356.77307	1032.50952	281.07376	-1355.76465	1075.46655	69.4439	-1403.87268	1043.07056	39.49208	-1464.03345	1217.8374	39.06052	-1396.91663	928.9187	1672.521	-1464.53735	NaN	NaN	NaN	NaN	NaN	NaN	NaN	NaN	NaN	NaN	NaN	NaN	NaN	NaN	NaN	NaN	NaN	NaN	NaN	NaN	NaN	NaN	NaN	NaN	NaN	NaN	NaN	NaN	NaN	NaN	NaN	NaN	NaN
276	2.75	1018.20422	1600.54822	-1498.38062	988.44373	1600.32483	-1368.52515	886.52197	1578.60107	-1524.28931	862.2038	1577.2251	-1396.32776	825.63159	1407.22009	-1474.80981	812.81873	1086.97974	-1476.17749	946.5741	1332.37109	-1463.62451	1002.20013	1173.04431	-1471.43457	771.00867	1219.28247	-1390.42444	914.78937	1369.84302	-1622.04883	949.40594	1177.10815	-1693.01782	987.33679	1059.69067	-1701.49719	1055.91199	949.96478	-1686.86511	1108.46545	849.13831	-1642.03284	1095.47571	842.86768	-1695.78687	1140.63306	774.99237	-1674.80981	884.21594	1346.67676	-1307.39661	879.12195	1119.81738	-1248.07629	891.13745	1007.021	-1237.24316	904.20239	870.29126	-1237.46265	939.38306	775.5108	-1269.5238	898.98785	769.55591	-1233.34692	919.77118	697.83472	-1243.21545	980.6452	930.26941	-1595.51941	988.34906	931.89349	-1355.42285	820.82751	956.05951	-1537.82263	825.36823	959.06	-1389.18542	871.83105	638.99298	-1633.36169	829.21771	464.39072	-1604.07898	705.94073	305.44968	-1607.23083	608.87018	115.23121	-1570.2334	557.96466	98.13689	-1534.85449	737.23816	33.69667	-1533.16589	973.43835	638.03418	-1315.72217	1033.53809	467.51978	-1356.24084	1036.54468	281.82013	-1355.59717	1075.73523	70.1662	-1404.38135	1043.32849	39.63403	-1464.18848	1218.20349	38.75213	-1396.78943	937.42651	1673.77014	-1462.78284	NaN	NaN	NaN	NaN	NaN	NaN	NaN	NaN	NaN	NaN	NaN	NaN	NaN	NaN	NaN	NaN	NaN	NaN	NaN	NaN	NaN	NaN	NaN	NaN	NaN	NaN	NaN	NaN	NaN	NaN	NaN	NaN	NaN
277	2.76	1026.46362	1601.94714	-1496.82397	996.81921	1601.60632	-1366.9729	894.6272	1580.23035	-1522.58362	870.62061	1578.79675	-1394.59473	833.77698	1408.56104	-1473.18799	821.57196	1088.25635	-1474.84814	955.00403	1333.98987	-1462.10107	1010.9516	1174.76489	-1470.08643	779.83002	1220.48694	-1388.56348	922.90259	1371.49414	-1620.43262	956.53979	1178.22766	-1690.61877	993.28778	1060.23889	-1698.57007	1059.39417	948.78271	-1685.16296	1109.56519	846.0307	-1641.51514	1096.06641	840.75031	-1695.29175	1139.57043	771.52502	-1675.22998	892.66766	1348.40918	-1305.88586	888.67981	1121.46179	-1246.60425	901.39038	1008.67468	-1236.01038	914.45947	872.01239	-1236.03821	949.72095	777.18054	-1268.24084	909.47711	771.26129	-1231.78577	930.65063	699.5379	-1241.7583	990.08368	931.08704	-1593.79749	997.72144	934.2901	-1353.99731	830.00031	957.19342	-1536.66272	834.65906	961.17236	-1387.86755	881.85522	639.5343	-1632.53284	839.87518	464.76031	-1604.43079	713.36578	307.81186	-1607.34998	612.54504	119.72535	-1570.59448	561.68799	103.93135	-1535.07288	737.72986	33.77715	-1533.24084	982.05432	640.09094	-1314.0752	1039.56885	468.88339	-1355.08154	1039.12756	282.35068	-1354.72156	1075.60681	70.11387	-1404.28857	1043.28613	39.64742	-1464.10388	1218.1228	38.51431	-1396.26575	945.73157	1675.09766	-1461.05505	NaN	NaN	NaN	NaN	NaN	NaN	NaN	NaN	NaN	NaN	NaN	NaN	NaN	NaN	NaN	NaN	NaN	NaN	NaN	NaN	NaN	NaN	NaN	NaN	NaN	NaN	NaN	NaN	NaN	NaN	NaN	NaN	NaN
278	2.77	1034.7019	1603.4458	-1495.27673	1005.41638	1603.0741	-1365.38977	902.88019	1581.93921	-1520.92944	879.01202	1580.39404	-1392.8606	842.06812	1410.05481	-1471.31763	830.1604	1089.67761	-1473.43298	963.46082	1335.74036	-1460.65161	1019.51941	1176.50769	-1468.76501	788.68512	1221.93213	-1386.60071	930.80011	1373.39331	-1618.9801	963.45862	1179.59888	-1688.27441	999.16663	1061.13391	-1695.72888	1062.55847	947.91895	-1683.60706	1110.59961	843.54956	-1641.22668	1096.31689	839.00659	-1694.94409	1138.03821	768.38702	-1675.94543	901.47302	1350.17883	-1304.26489	898.25269	1123.29688	-1245.13184	911.63672	1010.68469	-1234.68225	925.01587	874.05249	-1234.51221	960.72888	779.40759	-1266.64697	920.38092	773.29175	-1230.14587	941.65869	701.56	-1240.20325	999.35419	932.177	-1592.06946	1007.33478	936.81879	-1352.40332	839.12714	958.30072	-1535.38318	843.89124	963.15082	-1386.6355	892.12006	640.13184	-1631.81885	851.10339	465.02966	-1604.92285	721.4339	310.21692	-1607.61609	616.83264	124.46867	-1570.76733	565.58453	110.5853	-1535.02771	738.33923	34.02341	-1533.45349	990.73676	642.15973	-1312.19934	1044.62451	470.08878	-1353.43335	1040.72864	282.71051	-1353.65076	1075.56445	70.04887	-1404.21436	1043.04285	39.59524	-1463.78406	1218.06909	38.42574	-1396.43933	954.03204	1676.58606	-1459.35181	NaN	NaN	NaN	NaN	NaN	NaN	NaN	NaN	NaN	NaN	NaN	NaN	NaN	NaN	NaN	NaN	NaN	NaN	NaN	NaN	NaN	NaN	NaN	NaN	NaN	NaN	NaN	NaN	NaN	NaN	NaN	NaN	NaN
279	2.78	1042.88843	1604.96362	-1493.7627	1013.73492	1604.46643	-1363.83105	910.98584	1583.6178	-1519.16162	887.53998	1581.71814	-1391.0636	850.3266	1411.52026	-1469.48755	838.09412	1091.64246	-1472.43762	971.82642	1337.42896	-1459.18042	1028.03662	1178.27881	-1467.547	797.49341	1223.50781	-1384.4552	938.67255	1375.31104	-1617.29529	969.84033	1181.18506	-1686.05237	1004.86682	1062.26306	-1693.10449	1065.7395	947.4964	-1682.38989	1111.4248	841.52777	-1641.20398	1096.32617	837.71851	-1694.72864	1136.14587	765.65106	-1676.80493	910.17072	1352.14795	-1302.67859	907.94537	1125.32666	-1243.51709	921.78802	1012.77423	-1233.16858	935.92194	876.30792	-1232.85632	971.80164	781.73358	-1264.98792	931.64886	775.53772	-1228.29724	952.82324	703.72528	-1238.49561	1008.52814	933.44122	-1590.26929	1016.37933	939.33246	-1350.89209	848.27954	959.36053	-1533.81104	853.05695	964.99457	-1385.21033	902.73065	640.52423	-1631.40149	863.21222	465.24026	-1605.74939	730.21112	312.5986	-1607.96118	621.53613	129.52336	-1571.00171	570.48083	117.60596	-1534.86499	738.52258	33.54794	-1532.97388	999.01495	644.06085	-1310.35559	1049.13904	471.19754	-1351.64124	1042.37646	283.15039	-1352.58386	1074.81763	70.75854	-1403.98206	1042.81702	39.61402	-1463.41528	1217.96716	38.33508	-1396.32361	962.37726	1678.04346	-1457.65247	NaN	NaN	NaN	NaN	NaN	NaN	NaN	NaN	NaN	NaN	NaN	NaN	NaN	NaN	NaN	NaN	NaN	NaN	NaN	NaN	NaN	NaN	NaN	NaN	NaN	NaN	NaN	NaN	NaN	NaN	NaN	NaN	NaN
280	2.79	1051.02271	1606.38794	-1492.27588	1022.12396	1605.76489	-1362.30396	919.09369	1585.22266	-1517.51807	895.67273	1583.4043	-1389.36926	858.54791	1413.073	-1467.74133	846.77991	1092.92493	-1470.92542	980.23065	1339.04712	-1457.74097	1036.53235	1179.95325	-1466.38928	806.32983	1225.14172	-1382.27185	946.56281	1377.28931	-1615.67188	976.52026	1182.81177	-1683.95984	1010.17944	1063.48499	-1690.63928	1068.64954	947.27588	-1681.17371	1112.09387	839.69025	-1641.26685	1096.27869	836.73645	-1694.66748	1133.99121	763.18433	-1677.80701	919.10712	1353.95581	-1301.12219	917.49341	1127.29517	-1241.77979	931.88873	1014.92737	-1231.57324	946.73096	878.57025	-1231.07068	982.84467	784.0401	-1263.31848	942.98706	777.8125	-1226.35486	964.52026	705.91486	-1236.65613	1018.31604	935.18176	-1588.09729	1025.39429	941.6051	-1349.22595	857.34515	960.44183	-1532.22754	862.0744	966.69037	-1383.68579	913.55005	641.23755	-1630.87439	875.97406	465.2366	-1606.86035	739.8642	314.84964	-1608.42102	626.92328	134.76471	-1571.08813	576.15668	124.92117	-1534.52759	739.29266	33.59438	-1532.83643	1005.76227	645.52441	-1309.26978	1053.4447	472.04825	-1349.93005	1044.68225	283.5929	-1351.46228	1074.92639	70.69394	-1403.67126	1042.74463	39.6759	-1463.10803	1217.97705	38.23799	-1396.18958	970.68298	1679.4917	-1455.88757	NaN	NaN	NaN	NaN	NaN	NaN	NaN	NaN	NaN	NaN	NaN	NaN	NaN	NaN	NaN	NaN	NaN	NaN	NaN	NaN	NaN	NaN	NaN	NaN	NaN	NaN	NaN	NaN	NaN	NaN	NaN	NaN	NaN
